<svg width="28" height="30" viewBox="0 0 28 30" fill="none" xmlns="http://www.w3.org/2000/svg">
<g id="Group 2">
<path id="Vector 1" d="M6.21007 6.95988H25.7121C26.3649 6.95988 26.8427 7.57518 26.681 8.20761L25.141 14.2302C24.8014 15.5581 23.6051 16.487 22.2345 16.487H7.8608M0 1.49957H3.83163C4.81484 1.49957 5.65222 2.21422 5.80677 3.18521L8.36735 19.2733C8.52189 20.2443 9.35928 20.959 10.3425 20.959H24.5639" stroke="white" stroke-width="1.5"/>
<path id="Ellipse 1" d="M13.6377 26.5538C13.6377 27.6379 12.7975 28.4692 11.8188 28.4692C10.8401 28.4692 10 27.6379 10 26.5538C10 25.4697 10.8401 24.6385 11.8188 24.6385C12.7975 24.6385 13.6377 25.4697 13.6377 26.5538Z" stroke="white" stroke-width="1.5"/>
<path id="Ellipse 2" d="M24.9399 26.5538C24.9399 27.6379 24.0998 28.4692 23.1211 28.4692C22.1424 28.4692 21.3022 27.6379 21.3022 26.5538C21.3022 25.4697 22.1424 24.6385 23.1211 24.6385C24.0998 24.6385 24.9399 25.4697 24.9399 26.5538Z" stroke="white" stroke-width="1.5"/>
</g>
</svg>
