<svg width="19" height="19" viewBox="0 0 19 19" fill="none" xmlns="http://www.w3.org/2000/svg">
<g id="&#208;&#152;&#208;&#186;&#208;&#190;&#208;&#189;&#208;&#186;&#208;&#176;_&#208;&#186;&#208;&#190;&#209;&#128;&#208;&#183;&#208;&#184;&#208;&#189;&#209;&#139;">
<g id="Group 2">
<path id="Vector 1" d="M4.14005 4.42146H16.6916C17.3507 4.42146 17.8296 5.04797 17.6565 5.68396L16.9778 8.17874C16.6225 9.48483 15.4366 10.3912 14.0831 10.3912H5.24054M0 1H2.00252C2.97824 1 3.81154 1.70406 3.97445 2.66608L5.47496 11.5273C5.63787 12.4893 6.47118 13.1934 7.44689 13.1934H16.3759" stroke="white" stroke-width="1.5"/>
<path id="Ellipse 1" d="M8.84113 16.6991C8.84113 17.1896 8.42803 17.6192 7.87857 17.6192C7.32911 17.6192 6.91602 17.1896 6.91602 16.6991C6.91602 16.2086 7.32911 15.779 7.87857 15.779C8.42803 15.779 8.84113 16.2086 8.84113 16.6991Z" stroke="white" stroke-width="1.5"/>
<path id="Ellipse 2" d="M16.3763 16.6991C16.3763 17.1896 15.9632 17.6192 15.4137 17.6192C14.8643 17.6192 14.4512 17.1896 14.4512 16.6991C14.4512 16.2086 14.8643 15.779 15.4137 15.779C15.9632 15.779 16.3763 16.2086 16.3763 16.6991Z" stroke="white" stroke-width="1.5"/>
</g>
</g>
</svg>
